<svg width="14" height="14" viewBox="0 0 14 14" fill="none" xmlns="http://www.w3.org/2000/svg">
<path d="M10.2941 0H3.70588C2.72336 0.00108988 1.78138 0.39188 1.08663 1.08663C0.39188 1.78138 0.00108988 2.72336 0 3.70588V10.2941C0.00108988 11.2766 0.39188 12.2186 1.08663 12.9134C1.78138 13.6081 2.72336 13.9989 3.70588 14H10.2941C11.2766 13.9989 12.2186 13.6081 12.9134 12.9134C13.6081 12.2186 13.9989 11.2766 14 10.2941V3.70588C13.9989 2.72336 13.6081 1.78138 12.9134 1.08663C12.2186 0.39188 11.2766 0.00108988 10.2941 0ZM13.1765 10.2941C13.1765 11.0586 12.8728 11.7917 12.3322 12.3322C11.7917 12.8728 11.0586 13.1765 10.2941 13.1765H3.70588C2.94143 13.1765 2.2083 12.8728 1.66775 12.3322C1.12721 11.7917 0.823529 11.0586 0.823529 10.2941V3.70588C0.823529 2.94143 1.12721 2.2083 1.66775 1.66775C2.2083 1.12721 2.94143 0.823529 3.70588 0.823529H10.2941C11.0586 0.823529 11.7917 1.12721 12.3322 1.66775C12.8728 2.2083 13.1765 2.94143 13.1765 3.70588V10.2941ZM12.3529 7C12.3529 7.10921 12.3096 7.21394 12.2323 7.29116C12.1551 7.36838 12.0504 7.41176 11.9412 7.41176H9.72506L8.19165 10.4786C8.15643 10.5486 8.10195 10.6072 8.03461 10.6473C7.96727 10.6874 7.88987 10.7075 7.8115 10.7052C7.73314 10.7029 7.65707 10.6782 7.59224 10.6341C7.52741 10.59 7.47651 10.5284 7.44553 10.4564L5.40153 5.68729L4.91976 7.13012C4.89247 7.21208 4.84008 7.28337 4.77003 7.33392C4.69997 7.38447 4.6158 7.4117 4.52941 7.41176H2.05882C1.94962 7.41176 1.84488 7.36838 1.76766 7.29116C1.69044 7.21394 1.64706 7.10921 1.64706 7C1.64706 6.89079 1.69044 6.78606 1.76766 6.70884C1.84488 6.63162 1.94962 6.58824 2.05882 6.58824H4.23294L4.96259 4.39929C4.98912 4.32031 5.03899 4.25123 5.10561 4.20119C5.17224 4.15115 5.25247 4.12249 5.33572 4.11901C5.41897 4.11553 5.50132 4.13739 5.57188 4.1817C5.64245 4.22601 5.69791 4.29068 5.73094 4.36718L7.85235 9.31659L9.10247 6.81553C9.1367 6.74722 9.18926 6.68978 9.25427 6.64964C9.31928 6.6095 9.39418 6.58824 9.47059 6.58824H11.9412C12.0504 6.58824 12.1551 6.63162 12.2323 6.70884C12.3096 6.78606 12.3529 6.89079 12.3529 7Z" fill="#CCCEEF"/>
</svg>
